# xmcd
#
# Track frame offsets:
#	150
#	11461
#	23118
#	34356
#	48380
#	60348
#	74591
#	86448
#	98978
#	114546
#	124861
#
# Disc length: 1845 seconds
#
# Revision: 1
# Processed by: cddbd v1.5.2PL0 Copyright (c) Steve Scherf et al.
# Submitted via: audiograbber 1.82.01
#
DISCID=8e07330b
DTITLE=Conway Twitty - 11 #1 Hits
DYEAR=1900
DGENRE=Country
TTITLE0=It's Only Make Believe
TTITLE1=To See My Angel Cry
TTITLE2=Hello Darlin'
TTITLE3=Fifteen Years Ago
TTITLE4=She Needs Someone to Hold Her When She Cries
TTITLE5=You've Never Been This Far Before
TTITLE6=Linda On My Mind
TTITLE7=This Time I've Hurt Her More Than She Loves Me
TTITLE8=Touch The Hand
TTITLE9=(I Can't Believe) She Gives It All To Me
TTITLE10=The Games That Daddies Play
EXTD=These are recent stereo recordings by the original artist
EXTT0=
EXTT1=
EXTT2=
EXTT3=
EXTT4=
EXTT5=
EXTT6=
EXTT7=
EXTT8=
EXTT9=
EXTT10=
PLAYORDER=
